<svg id="Logo" xmlns="http://www.w3.org/2000/svg" width="560.564" height="180" viewBox="0 0 560.564 180">
  <g id="_1" data-name="1" transform="translate(0)">
    <g id="_1-2" data-name="1">
      <g id="Group_5" data-name="Group 5" transform="translate(466.113 39.881)">
        <path id="Path_1" data-name="Path 1" d="M606.417,71.631a46.31,46.31,0,0,1,17,17.181,47.73,47.73,0,0,1,6.231,24.3v38.279a8.251,8.251,0,0,1-2.493,6.231,8.386,8.386,0,0,1-6.231,2.493,8.25,8.25,0,0,1-6.231-2.493,8.386,8.386,0,0,1-2.493-6.231v-6.321a42.72,42.72,0,0,1-14.6,11.484,43.8,43.8,0,0,1-40.861-2.047,43.013,43.013,0,0,1-15.757-17.092,51.3,51.3,0,0,1-5.786-24.3,48.812,48.812,0,0,1,6.143-24.3,44.639,44.639,0,0,1,17.092-17.181A47.545,47.545,0,0,1,582.559,65.4,46.57,46.57,0,0,1,606.417,71.631ZM597.96,140.89a28.73,28.73,0,0,0,10.86-11.484,33.507,33.507,0,0,0,3.917-16.38,34.874,34.874,0,0,0-3.917-16.469,29.881,29.881,0,0,0-52.789,0,33.91,33.91,0,0,0-4.006,16.469,33.563,33.563,0,0,0,4.006,16.38,29.623,29.623,0,0,0,26.439,15.668A28.133,28.133,0,0,0,597.96,140.89Z" transform="translate(-535.2 -65.4)" fill="#fff"/>
      </g>
      <g id="Group_6" data-name="Group 6" transform="translate(0 6.32)">
        <path id="Path_2" data-name="Path 2" d="M95.547,120.352a7.453,7.453,0,0,1-5.519,2.047H27a29.617,29.617,0,0,0,10.5,18.783C43.291,145.9,50.413,148.3,58.87,148.3A31.326,31.326,0,0,0,69.2,146.435a31.956,31.956,0,0,0,8.9-4.451,8.392,8.392,0,0,1,5.519-1.78,6.916,6.916,0,0,1,4.985,1.691c1.958,1.691,3.027,3.561,3.027,5.608a6.062,6.062,0,0,1-2.671,4.985,44.558,44.558,0,0,1-14.065,7.3,50.787,50.787,0,0,1-16.024,2.849,50.181,50.181,0,0,1-24.392-5.875,41.972,41.972,0,0,1-16.825-16.38A46.72,46.72,0,0,1,11.6,116.613a48.632,48.632,0,0,1,5.7-23.769A42.31,42.31,0,0,1,33.232,76.375,45.423,45.423,0,0,1,56.377,70.5c8.546,0,15.846,1.869,22.077,5.608A36.515,36.515,0,0,1,92.7,91.865,52.441,52.441,0,0,1,97.683,115.1,6.91,6.91,0,0,1,95.547,120.352ZM36.7,91.42c-5.074,4.451-8.19,10.326-9.525,17.715H82.461c-.979-7.389-3.739-13.353-8.279-17.715-4.54-4.451-10.415-6.677-17.715-6.677Q44.182,84.877,36.7,91.42Z" transform="translate(-11.6 -32.399)" fill="#fff"/>
        <path id="Path_3" data-name="Path 3" d="M212.71,30.015a8.326,8.326,0,0,1,2.315,6.142v75.668a46.67,46.67,0,0,1-6.053,23.5A43.9,43.9,0,0,1,192.5,151.884a45.356,45.356,0,0,1-23.145,6.053,46.247,46.247,0,0,1-23.324-6.053,42.668,42.668,0,0,1-16.469-16.558,46.607,46.607,0,0,1-5.964-23.5,50.271,50.271,0,0,1,5.519-23.5,41.884,41.884,0,0,1,15.222-16.469A42.1,42.1,0,0,1,183.867,69.9a39.859,39.859,0,0,1,14.065,11.128V36.157a8.045,8.045,0,0,1,2.4-6.142,8.551,8.551,0,0,1,6.053-2.315A8.4,8.4,0,0,1,212.71,30.015ZM184.4,138.887a27.779,27.779,0,0,0,10.5-11.217,32.7,32.7,0,0,0,3.828-15.935,32.354,32.354,0,0,0-3.828-15.846,29.375,29.375,0,0,0-10.5-11.128,28.889,28.889,0,0,0-15.044-4.095,28.3,28.3,0,0,0-15.045,4.095A28.965,28.965,0,0,0,143.719,95.89a32.406,32.406,0,0,0-3.917,15.846,32.752,32.752,0,0,0,3.917,15.935,29.851,29.851,0,0,0,10.593,11.217,28.889,28.889,0,0,0,15.045,4.095A28.078,28.078,0,0,0,184.4,138.887Z" transform="translate(-23.897 -27.7)" fill="#fff"/>
        <path id="Path_4" data-name="Path 4" d="M338.569,120.352a7.453,7.453,0,0,1-5.519,2.047H270.112a29.616,29.616,0,0,0,10.5,18.783c5.786,4.718,12.908,7.122,21.365,7.122a36.017,36.017,0,0,0,19.318-6.32,8.392,8.392,0,0,1,5.519-1.78,6.916,6.916,0,0,1,4.985,1.691c1.958,1.691,3.027,3.561,3.027,5.608a6.063,6.063,0,0,1-2.671,4.985,44.56,44.56,0,0,1-14.065,7.3,50.788,50.788,0,0,1-16.024,2.849,50.181,50.181,0,0,1-24.392-5.875,41.97,41.97,0,0,1-16.825-16.38,46.718,46.718,0,0,1-6.054-23.768,48.631,48.631,0,0,1,5.7-23.769,42.309,42.309,0,0,1,15.934-16.469A45.424,45.424,0,0,1,299.578,70.5c8.546,0,15.846,1.869,22.077,5.608A36.515,36.515,0,0,1,335.9,91.865a52.441,52.441,0,0,1,4.985,23.234A7.394,7.394,0,0,1,338.569,120.352ZM279.815,91.42c-5.074,4.451-8.19,10.326-9.525,17.715h55.282c-.979-7.389-3.739-13.353-8.279-17.715-4.54-4.451-10.415-6.677-17.715-6.677Q287.292,84.877,279.815,91.42Z" transform="translate(-38.301 -32.399)" fill="#fff"/>
      </g>
      <g id="Group_7" data-name="Group 7" transform="translate(322.522)">
        <path id="Path_5" data-name="Path 5" d="M511.914,20.6H475.682L427.7,87.455l47.715,66.677h36.232L464.02,87.455Z" transform="translate(-379.807 -20.6)" fill="#007de4"/>
        <path id="Path_6" data-name="Path 6" d="M424.375,40.363,410.131,20.6H373.9l32.582,45.312Z" transform="translate(-373.9 -20.6)" fill="#007de4"/>
        <path id="Path_7" data-name="Path 7" d="M374.3,164.8h36.232l16.023-22.344L407.95,117.8Z" transform="translate(-373.944 -31.272)" fill="#007de4"/>
      </g>
    </g>
  </g>
  <g id="Group_8" data-name="Group 8" transform="translate(114.303 148.932)">
    <path id="Path_8" data-name="Path 8" d="M152.2,216.872a1.329,1.329,0,0,1,.267.89,1.089,1.089,0,0,1-.267.8,1.129,1.129,0,0,1-.8.356h-.8a6.891,6.891,0,0,1-3.561-.979,5.845,5.845,0,0,1-2.4-2.67,8.97,8.97,0,0,1-.89-3.828V200.492h-2.76a1.011,1.011,0,0,1-.712-.267,1.089,1.089,0,0,1-.267-.8,1.242,1.242,0,0,1,.267-.8.738.738,0,0,1,.712-.267h2.76v-6.409a1.5,1.5,0,0,1,.267-.89,1.128,1.128,0,0,1,.8-.356.868.868,0,0,1,.8.356,1.329,1.329,0,0,1,.267.89v6.409h4.718a1.011,1.011,0,0,1,.712.267,1.088,1.088,0,0,1,.267.8,1.244,1.244,0,0,1-.267.8,1.012,1.012,0,0,1-.712.267h-4.718v10.949a4.98,4.98,0,0,0,1.335,3.65,4.193,4.193,0,0,0,3.294,1.424h.8A1.581,1.581,0,0,1,152.2,216.872Z" transform="translate(-140 -188.207)" fill="#fff"/>
    <path id="Path_9" data-name="Path 9" d="M172.709,198.137a8.38,8.38,0,0,1,3.2,3.383,11.253,11.253,0,0,1,1.157,5.341v10.5a1.088,1.088,0,0,1-.267.8,1.129,1.129,0,0,1-.8.356,1.088,1.088,0,0,1-.8-.356,1.243,1.243,0,0,1-.267-.8v-10.5a7.643,7.643,0,0,0-1.958-5.7,6.507,6.507,0,0,0-4.985-1.959,7.656,7.656,0,0,0-3.472.8,6.04,6.04,0,0,0-2.493,2.226,5.523,5.523,0,0,0-.89,3.116v11.929a1.089,1.089,0,0,1-.267.8,1.128,1.128,0,0,1-.8.356,1.087,1.087,0,0,1-.8-.356,1.242,1.242,0,0,1-.267-.8V189.146a1.5,1.5,0,0,1,.267-.89,1.128,1.128,0,0,1,.8-.356.868.868,0,0,1,.8.356,1.329,1.329,0,0,1,.267.89v11.306a9.057,9.057,0,0,1,2.938-2.581,8.073,8.073,0,0,1,3.828-.89A9.38,9.38,0,0,1,172.709,198.137Z" transform="translate(-142.086 -187.9)" fill="#fff"/>
    <path id="Path_10" data-name="Path 10" d="M198.854,199.513a9.457,9.457,0,0,1,3.2,3.739,11.873,11.873,0,0,1,1.157,5.43,1.088,1.088,0,0,1-.267.8,1.012,1.012,0,0,1-.712.267H187.193a9.939,9.939,0,0,0,1.068,4.1,8.243,8.243,0,0,0,2.671,2.849,6.922,6.922,0,0,0,3.739.979,8.445,8.445,0,0,0,2.849-.534,5.075,5.075,0,0,0,2.226-1.424,1.751,1.751,0,0,1,.712-.356.808.808,0,0,1,.623.267,1.087,1.087,0,0,1,.356.8.81.81,0,0,1-.356.712,9.213,9.213,0,0,1-3.027,1.869,8.765,8.765,0,0,1-3.561.712,9.106,9.106,0,0,1-5.074-1.424,9.588,9.588,0,0,1-3.472-3.828,12.958,12.958,0,0,1-1.246-5.608,12.386,12.386,0,0,1,1.157-5.608,8.723,8.723,0,0,1,3.294-3.828A8.954,8.954,0,0,1,193.958,198,10.582,10.582,0,0,1,198.854,199.513Zm-9.436,2.849A9.229,9.229,0,0,0,187.1,207.7H201.08a8.565,8.565,0,0,0-2.136-5.341,6.317,6.317,0,0,0-4.807-2.047A6.4,6.4,0,0,0,189.418,202.362Z" transform="translate(-144.908 -189.009)" fill="#fff"/>
    <path id="Path_11" data-name="Path 11" d="M237.723,198.415a10.326,10.326,0,0,1,3.65,3.917,11.5,11.5,0,0,1,1.335,5.519,11.855,11.855,0,0,1-1.335,5.608,9.682,9.682,0,0,1-3.65,3.917,9.2,9.2,0,0,1-5.163,1.424,9.105,9.105,0,0,1-5.074-1.424,10.751,10.751,0,0,1-3.65-3.828,11.154,11.154,0,0,1-1.335-5.43V189.246a1.5,1.5,0,0,1,.267-.89,1.128,1.128,0,0,1,.8-.356.868.868,0,0,1,.8.356,1.329,1.329,0,0,1,.267.89v12.2a9.464,9.464,0,0,1,3.2-3.294,8.945,8.945,0,0,1,4.629-1.157A10.543,10.543,0,0,1,237.723,198.415Zm-1.157,17.092a8.748,8.748,0,0,0,2.849-3.116,9.807,9.807,0,0,0,0-8.9,7.441,7.441,0,0,0-2.849-3.116,7.544,7.544,0,0,0-4.006-1.157,6.834,6.834,0,0,0-4.006,1.157,8.065,8.065,0,0,0-2.848,3.116,9.333,9.333,0,0,0-.979,4.451,10.516,10.516,0,0,0,.979,4.451,7.442,7.442,0,0,0,2.848,3.116,7.511,7.511,0,0,0,8.012,0Z" transform="translate(-149.058 -187.911)" fill="#fff"/>
    <path id="Path_12" data-name="Path 12" d="M268.515,198.766a1.33,1.33,0,0,1,.267.89v19.05a1.088,1.088,0,0,1-.267.8,1.128,1.128,0,0,1-.8.356,1.087,1.087,0,0,1-.8-.356,1.242,1.242,0,0,1-.267-.8V216.66a9.061,9.061,0,0,1-2.938,2.582,8.074,8.074,0,0,1-3.828.89,9.272,9.272,0,0,1-4.718-1.157,8.378,8.378,0,0,1-3.2-3.383,11.251,11.251,0,0,1-1.157-5.341v-10.5a1.088,1.088,0,0,1,.267-.8,1.128,1.128,0,0,1,.8-.356,1.087,1.087,0,0,1,.8.356,1.242,1.242,0,0,1,.267.8v10.5a7.644,7.644,0,0,0,1.958,5.7,6.508,6.508,0,0,0,4.985,1.958,7.654,7.654,0,0,0,3.472-.8,6.041,6.041,0,0,0,2.492-2.225,5.522,5.522,0,0,0,.89-3.116V199.835a1.5,1.5,0,0,1,.267-.89,1.128,1.128,0,0,1,.8-.356A.481.481,0,0,1,268.515,198.766Z" transform="translate(-152.165 -189.063)" fill="#fff"/>
    <path id="Path_13" data-name="Path 13" d="M280.761,219.22a8.115,8.115,0,0,1-3.294-2.4,1.011,1.011,0,0,1-.267-.712,1.237,1.237,0,0,1,.445-.89,1.288,1.288,0,0,1,.623-.178.934.934,0,0,1,.8.445c1.158,1.6,3.116,2.4,5.786,2.4a6.726,6.726,0,0,0,4.184-1.068,3.5,3.5,0,0,0,1.335-2.848c0-2.048-1.869-3.383-5.519-3.917A10.639,10.639,0,0,1,279.6,208a4.68,4.68,0,0,1-1.78-3.65,5.386,5.386,0,0,1,1.959-4.451,7.45,7.45,0,0,1,4.985-1.6,7.67,7.67,0,0,1,6.855,3.472.848.848,0,0,1,.178.623,1.083,1.083,0,0,1-.534.89,3.5,3.5,0,0,1-.534.178,1.083,1.083,0,0,1-.89-.534,6.058,6.058,0,0,0-5.163-2.582,5.387,5.387,0,0,0-3.472,1.068A3.128,3.128,0,0,0,279.871,204a3,3,0,0,0,1.246,2.493,10.225,10.225,0,0,0,4.184,1.424,9.635,9.635,0,0,1,5.43,2.226,5.46,5.46,0,0,1,1.692,3.917,5.336,5.336,0,0,1-1.068,3.2,7.083,7.083,0,0,1-2.849,2.136,9.161,9.161,0,0,1-3.828.712A13.046,13.046,0,0,1,280.761,219.22Z" transform="translate(-155.063 -189.042)" fill="#fff"/>
    <path id="Path_14" data-name="Path 14" d="M300.445,192.416A2.185,2.185,0,0,1,300,191.08a1.811,1.811,0,0,1,.534-1.335,1.474,1.474,0,0,1,1.157-.445,1.875,1.875,0,0,1,1.157.445,1.532,1.532,0,0,1,.445,1.335,2.186,2.186,0,0,1-.445,1.335,1.616,1.616,0,0,1-1.246.534A1.566,1.566,0,0,1,300.445,192.416Zm.445,25.994a1.242,1.242,0,0,1-.267-.8v-19.05a1.5,1.5,0,0,1,.267-.89,1.128,1.128,0,0,1,.8-.356.867.867,0,0,1,.8.356,1.328,1.328,0,0,1,.267.89v19.05a1.087,1.087,0,0,1-.267.8,1.128,1.128,0,0,1-.8.356A.966.966,0,0,1,300.89,218.41Z" transform="translate(-157.567 -188.054)" fill="#fff"/>
    <path id="Path_15" data-name="Path 15" d="M324.809,199.235a8.382,8.382,0,0,1,3.2,3.383,11.255,11.255,0,0,1,1.157,5.341v10.5a1.088,1.088,0,0,1-.267.8,1.129,1.129,0,0,1-.8.356,1.087,1.087,0,0,1-.8-.356,1.243,1.243,0,0,1-.267-.8v-10.5a7.643,7.643,0,0,0-1.959-5.7,6.506,6.506,0,0,0-4.985-1.958,7.657,7.657,0,0,0-3.472.8,6.042,6.042,0,0,0-2.493,2.226,5.522,5.522,0,0,0-.89,3.116v11.929a1.088,1.088,0,0,1-.267.8,1.129,1.129,0,0,1-.8.356,1.088,1.088,0,0,1-.8-.356,1.243,1.243,0,0,1-.267-.8V199.324a1.5,1.5,0,0,1,.267-.89,1.129,1.129,0,0,1,.8-.356.868.868,0,0,1,.8.356,1.329,1.329,0,0,1,.267.89v2.048a9.057,9.057,0,0,1,2.938-2.582A8.073,8.073,0,0,1,320,197.9,11.271,11.271,0,0,1,324.809,199.235Z" transform="translate(-158.785 -188.998)" fill="#fff"/>
    <path id="Path_16" data-name="Path 16" d="M350.954,199.513a9.457,9.457,0,0,1,3.2,3.739,11.872,11.872,0,0,1,1.157,5.43,1.089,1.089,0,0,1-.267.8,1.011,1.011,0,0,1-.712.267H339.293a9.942,9.942,0,0,0,1.068,4.1,8.245,8.245,0,0,0,2.671,2.849,6.922,6.922,0,0,0,3.739.979,8.44,8.44,0,0,0,2.848-.534,5.074,5.074,0,0,0,2.226-1.424,1.751,1.751,0,0,1,.712-.356.808.808,0,0,1,.623.267,1.088,1.088,0,0,1,.356.8.81.81,0,0,1-.356.712,9.215,9.215,0,0,1-3.027,1.869,8.764,8.764,0,0,1-3.561.712,9.106,9.106,0,0,1-5.074-1.424,9.587,9.587,0,0,1-3.472-3.828,12.955,12.955,0,0,1-1.246-5.608,12.385,12.385,0,0,1,1.157-5.608,8.725,8.725,0,0,1,3.294-3.828A8.955,8.955,0,0,1,346.058,198,10.259,10.259,0,0,1,350.954,199.513Zm-9.347,2.849a9.225,9.225,0,0,0-2.315,5.341h13.976a8.565,8.565,0,0,0-2.136-5.341,6.562,6.562,0,0,0-9.525,0Z" transform="translate(-161.607 -189.009)" fill="#fff"/>
    <path id="Path_17" data-name="Path 17" d="M365.361,219.22a8.117,8.117,0,0,1-3.294-2.4,1.011,1.011,0,0,1-.267-.712,1.237,1.237,0,0,1,.445-.89,1.289,1.289,0,0,1,.623-.178.934.934,0,0,1,.8.445c1.157,1.6,3.116,2.4,5.787,2.4a6.727,6.727,0,0,0,4.184-1.068,3.5,3.5,0,0,0,1.335-2.848c0-2.048-1.87-3.383-5.519-3.917A10.635,10.635,0,0,1,364.2,208a4.679,4.679,0,0,1-1.78-3.65,5.387,5.387,0,0,1,1.958-4.451,7.451,7.451,0,0,1,4.985-1.6,7.67,7.67,0,0,1,6.855,3.472.848.848,0,0,1,.178.623,1.084,1.084,0,0,1-.534.89,3.489,3.489,0,0,1-.534.178,1.084,1.084,0,0,1-.89-.534,6.058,6.058,0,0,0-5.163-2.582,5.387,5.387,0,0,0-3.472,1.068A3.128,3.128,0,0,0,364.471,204a3,3,0,0,0,1.246,2.493,10.226,10.226,0,0,0,4.184,1.424,9.636,9.636,0,0,1,5.43,2.226,5.46,5.46,0,0,1,1.691,3.917,5.335,5.335,0,0,1-1.068,3.2,7.084,7.084,0,0,1-2.849,2.136,9.16,9.16,0,0,1-3.828.712A13.047,13.047,0,0,1,365.361,219.22Z" transform="translate(-164.352 -189.042)" fill="#fff"/>
    <path id="Path_18" data-name="Path 18" d="M386.961,219.22a8.113,8.113,0,0,1-3.294-2.4,1.01,1.01,0,0,1-.267-.712,1.237,1.237,0,0,1,.445-.89,1.285,1.285,0,0,1,.623-.178.936.936,0,0,1,.8.445c1.157,1.6,3.115,2.4,5.786,2.4a6.727,6.727,0,0,0,4.184-1.068,3.5,3.5,0,0,0,1.335-2.848c0-2.048-1.869-3.383-5.519-3.917A10.64,10.64,0,0,1,385.8,208a4.68,4.68,0,0,1-1.78-3.65,5.386,5.386,0,0,1,1.959-4.451,7.45,7.45,0,0,1,4.985-1.6,7.67,7.67,0,0,1,6.855,3.472.848.848,0,0,1,.178.623,1.083,1.083,0,0,1-.534.89,3.494,3.494,0,0,1-.534.178,1.084,1.084,0,0,1-.89-.534,6.058,6.058,0,0,0-5.163-2.582,5.387,5.387,0,0,0-3.472,1.068A3.128,3.128,0,0,0,386.071,204a3,3,0,0,0,1.246,2.493,10.225,10.225,0,0,0,4.184,1.424,9.635,9.635,0,0,1,5.43,2.226,5.46,5.46,0,0,1,1.692,3.917,5.333,5.333,0,0,1-1.068,3.2,7.083,7.083,0,0,1-2.848,2.136,9.162,9.162,0,0,1-3.828.712A13.042,13.042,0,0,1,386.961,219.22Z" transform="translate(-166.723 -189.042)" fill="#fff"/>
    <path id="Path_19" data-name="Path 19" d="M433.023,198.415a10.32,10.32,0,0,1,3.65,3.917,11.5,11.5,0,0,1,1.335,5.519,11.852,11.852,0,0,1-1.335,5.608,9.679,9.679,0,0,1-3.65,3.917,9.4,9.4,0,0,1-5.163,1.424,9.1,9.1,0,0,1-5.074-1.424,10.07,10.07,0,0,1-3.65-3.828,11.151,11.151,0,0,1-1.335-5.43V189.246a1.5,1.5,0,0,1,.267-.89,1.129,1.129,0,0,1,.8-.356.868.868,0,0,1,.8.356,1.329,1.329,0,0,1,.267.89v12.2a9.462,9.462,0,0,1,3.2-3.294,8.945,8.945,0,0,1,4.629-1.157A10.055,10.055,0,0,1,433.023,198.415Zm-1.068,17.092a8.751,8.751,0,0,0,2.848-3.116,9.806,9.806,0,0,0,0-8.9,7.443,7.443,0,0,0-2.848-3.116,7.545,7.545,0,0,0-4.006-1.157,6.833,6.833,0,0,0-4.006,1.157,8.067,8.067,0,0,0-2.849,3.116,9.336,9.336,0,0,0-.979,4.451,10.522,10.522,0,0,0,.979,4.451,7.442,7.442,0,0,0,2.849,3.116,6.832,6.832,0,0,0,4.006,1.157A7.229,7.229,0,0,0,431.954,215.507Z" transform="translate(-170.5 -187.911)" fill="#fff"/>
    <path id="Path_20" data-name="Path 20" d="M447.035,216.854a7.517,7.517,0,0,1-1.335-4.629V189.346a1.5,1.5,0,0,1,.267-.89,1.13,1.13,0,0,1,.8-.356.868.868,0,0,1,.8.356,1.329,1.329,0,0,1,.267.89v22.878a5.975,5.975,0,0,0,.712,2.938,1.983,1.983,0,0,0,1.78,1.157h.891a.672.672,0,0,1,.623.356,1.329,1.329,0,0,1,.267.89,1.088,1.088,0,0,1-.267.8,1.128,1.128,0,0,1-.8.356h-.712A4.233,4.233,0,0,1,447.035,216.854Z" transform="translate(-173.564 -187.922)" fill="#fff"/>
    <path id="Path_21" data-name="Path 21" d="M460.685,218.586a10.328,10.328,0,0,1-3.65-3.917,11.5,11.5,0,0,1-1.335-5.519,11.857,11.857,0,0,1,1.335-5.608,9.683,9.683,0,0,1,3.65-3.917,9.2,9.2,0,0,1,5.163-1.424,9.1,9.1,0,0,1,5.074,1.424,10.326,10.326,0,0,1,3.65,3.917,11.857,11.857,0,0,1,1.335,5.608,11.256,11.256,0,0,1-1.335,5.519,9.684,9.684,0,0,1-3.65,3.917,9.1,9.1,0,0,1-5.074,1.424A9.97,9.97,0,0,1,460.685,218.586Zm9.169-1.958a8.067,8.067,0,0,0,2.849-3.116,9.339,9.339,0,0,0,.979-4.451,10.52,10.52,0,0,0-.979-4.451,7.444,7.444,0,0,0-2.849-3.116,7.511,7.511,0,0,0-8.011,0,8.748,8.748,0,0,0-2.849,3.116,9.807,9.807,0,0,0,0,8.9,7.441,7.441,0,0,0,2.849,3.116,7.542,7.542,0,0,0,4.006,1.157A7.024,7.024,0,0,0,469.854,216.627Z" transform="translate(-174.661 -189.031)" fill="#fff"/>
    <path id="Path_22" data-name="Path 22" d="M487.918,218.586a9.276,9.276,0,0,1-3.472-3.917,11.447,11.447,0,0,1-1.246-5.519,12.917,12.917,0,0,1,1.157-5.608,9.5,9.5,0,0,1,3.294-3.917,8.17,8.17,0,0,1,4.718-1.424,9.343,9.343,0,0,1,4.184.979,9.1,9.1,0,0,1,3.294,2.849,1.183,1.183,0,0,1,.267.623,1.084,1.084,0,0,1-.534.89.77.77,0,0,1-.534.267.934.934,0,0,1-.8-.445,7.094,7.094,0,0,0-5.875-2.938,6.788,6.788,0,0,0-3.739,1.068,7.328,7.328,0,0,0-2.493,3.116,11.069,11.069,0,0,0,.089,8.9,7.067,7.067,0,0,0,2.671,3.116,7.47,7.47,0,0,0,3.917,1.157,6.856,6.856,0,0,0,5.074-1.869.877.877,0,0,1,1.335-.089,1.143,1.143,0,0,1,.356.89,1.011,1.011,0,0,1-.267.712,8.5,8.5,0,0,1-2.938,1.958,9.764,9.764,0,0,1-3.561.712A10.529,10.529,0,0,1,487.918,218.586Z" transform="translate(-177.68 -189.031)" fill="#fff"/>
    <path id="Path_23" data-name="Path 23" d="M523.344,217.666a1.088,1.088,0,0,1-.356.8c-.267.178-.445.356-.623.356a.908.908,0,0,1-.713-.445l-7.834-10.326-3.383,3.294v6.231a1.089,1.089,0,0,1-.267.8,1.128,1.128,0,0,1-.8.356,1.088,1.088,0,0,1-.8-.356,1.244,1.244,0,0,1-.267-.8V189.446a1.506,1.506,0,0,1,.267-.89,1.129,1.129,0,0,1,.8-.356.868.868,0,0,1,.8.356,1.331,1.331,0,0,1,.267.89v19.139l11.128-11.039c.267-.178.445-.356.712-.356a.919.919,0,0,1,.712.356c.178.267.356.445.356.712a.81.81,0,0,1-.356.712l-7.567,7.567,7.834,10.415C523.255,217.132,523.344,217.4,523.344,217.666Z" transform="translate(-180.437 -187.933)" fill="#fff"/>
    <path id="Path_24" data-name="Path 24" d="M534.218,218.586a9.268,9.268,0,0,1-3.472-3.917,11.444,11.444,0,0,1-1.246-5.519,12.917,12.917,0,0,1,1.157-5.608,9.507,9.507,0,0,1,3.294-3.917,8.169,8.169,0,0,1,4.718-1.424,9.346,9.346,0,0,1,4.184.979,9.11,9.11,0,0,1,3.294,2.849,1.181,1.181,0,0,1,.267.623,1.083,1.083,0,0,1-.534.89.769.769,0,0,1-.534.267.934.934,0,0,1-.8-.445,7.094,7.094,0,0,0-5.875-2.938,6.79,6.79,0,0,0-3.739,1.068,7.333,7.333,0,0,0-2.492,3.116,11.061,11.061,0,0,0,.089,8.9,7.071,7.071,0,0,0,2.67,3.116,7.474,7.474,0,0,0,3.918,1.157,6.856,6.856,0,0,0,5.074-1.869.877.877,0,0,1,1.335-.089,1.142,1.142,0,0,1,.356.89,1.011,1.011,0,0,1-.267.712,8.5,8.5,0,0,1-2.938,1.958,9.766,9.766,0,0,1-3.561.712A10.219,10.219,0,0,1,534.218,218.586Z" transform="translate(-182.764 -189.031)" fill="#fff"/>
    <path id="Path_25" data-name="Path 25" d="M568.209,198.137a8.378,8.378,0,0,1,3.2,3.383,11.255,11.255,0,0,1,1.158,5.341v10.5a1.088,1.088,0,0,1-.268.8,1.128,1.128,0,0,1-.8.356,1.087,1.087,0,0,1-.8-.356,1.242,1.242,0,0,1-.267-.8v-10.5a7.642,7.642,0,0,0-1.958-5.7,6.64,6.64,0,0,0-4.985-1.959,7.658,7.658,0,0,0-3.472.8,6.04,6.04,0,0,0-2.492,2.226,5.519,5.519,0,0,0-.89,3.116v11.929a1.088,1.088,0,0,1-.267.8,1.127,1.127,0,0,1-.8.356,1.087,1.087,0,0,1-.8-.356,1.243,1.243,0,0,1-.267-.8V189.146a1.5,1.5,0,0,1,.267-.89,1.128,1.128,0,0,1,.8-.356.867.867,0,0,1,.8.356,1.329,1.329,0,0,1,.267.89v11.306a9.06,9.06,0,0,1,2.938-2.581,8.072,8.072,0,0,1,3.828-.89A9.383,9.383,0,0,1,568.209,198.137Z" transform="translate(-185.509 -187.9)" fill="#fff"/>
    <path id="Path_26" data-name="Path 26" d="M595.634,199.534a10.327,10.327,0,0,1,3.65,3.917,11.859,11.859,0,0,1,1.335,5.608v9.525a1.089,1.089,0,0,1-.268.8,1.128,1.128,0,0,1-.8.356,1.087,1.087,0,0,1-.8-.356,1.242,1.242,0,0,1-.267-.8v-3.027a8.768,8.768,0,0,1-3.205,3.294,8.944,8.944,0,0,1-4.629,1.157,9.613,9.613,0,0,1-5.163-1.424,10.332,10.332,0,0,1-3.65-3.917,11.5,11.5,0,0,1-1.335-5.519,11.858,11.858,0,0,1,1.335-5.608,9.689,9.689,0,0,1,3.65-3.917,9.2,9.2,0,0,1,5.163-1.424A9.34,9.34,0,0,1,595.634,199.534Zm-1.158,17.092a8.064,8.064,0,0,0,2.849-3.116,9.334,9.334,0,0,0,.978-4.451,10.527,10.527,0,0,0-.978-4.451,7.441,7.441,0,0,0-2.849-3.116,7.511,7.511,0,0,0-8.011,0,8.741,8.741,0,0,0-2.849,3.116,9.8,9.8,0,0,0,0,8.9,7.44,7.44,0,0,0,2.849,3.116,7.539,7.539,0,0,0,4.006,1.157A6.83,6.83,0,0,0,594.476,216.626Z" transform="translate(-188.364 -189.03)" fill="#fff"/>
    <path id="Path_27" data-name="Path 27" d="M609.645,192.416a2.188,2.188,0,0,1-.445-1.335,1.813,1.813,0,0,1,.534-1.335,1.475,1.475,0,0,1,1.157-.445,1.875,1.875,0,0,1,1.157.445,1.635,1.635,0,0,1,.445,1.335,2.186,2.186,0,0,1-.445,1.335,1.616,1.616,0,0,1-1.246.534A1.324,1.324,0,0,1,609.645,192.416Zm.446,25.994a1.243,1.243,0,0,1-.268-.8v-19.05a1.5,1.5,0,0,1,.268-.89,1.127,1.127,0,0,1,.8-.356.868.868,0,0,1,.8.356,1.329,1.329,0,0,1,.267.89v19.05a1.088,1.088,0,0,1-.267.8,1.129,1.129,0,0,1-.8.356A.867.867,0,0,1,610.09,218.41Z" transform="translate(-191.514 -188.054)" fill="#fff"/>
    <path id="Path_28" data-name="Path 28" d="M634.009,199.235a8.379,8.379,0,0,1,3.2,3.383,11.249,11.249,0,0,1,1.157,5.341v10.5a1.088,1.088,0,0,1-.267.8,1.128,1.128,0,0,1-.8.356,1.087,1.087,0,0,1-.8-.356,1.244,1.244,0,0,1-.267-.8v-10.5a7.644,7.644,0,0,0-1.958-5.7,6.641,6.641,0,0,0-4.986-1.958,7.658,7.658,0,0,0-3.472.8,6.04,6.04,0,0,0-2.493,2.226,5.522,5.522,0,0,0-.89,3.116v11.929a1.089,1.089,0,0,1-.267.8,1.128,1.128,0,0,1-.8.356,1.089,1.089,0,0,1-.8-.356,1.244,1.244,0,0,1-.267-.8V199.324a1.505,1.505,0,0,1,.267-.89,1.13,1.13,0,0,1,.8-.356.867.867,0,0,1,.8.356,1.33,1.33,0,0,1,.267.89v2.048a9.056,9.056,0,0,1,2.938-2.582,8.072,8.072,0,0,1,3.828-.89A11.645,11.645,0,0,1,634.009,199.235Z" transform="translate(-192.733 -188.998)" fill="#fff"/>
  </g>
</svg>
